<?xml version="1.0" encoding="UTF-8"?>
<svg id="Capa_2" data-name="Capa 2" xmlns="http://www.w3.org/2000/svg" viewBox="0 0 267.55 241.75">
  <defs>
    <style>
      .cls-1 {
        fill: #d2691e;
      }
    </style>
  </defs>
  <g id="Capa_1-2" data-name="Capa 1">
    <g>
      <polygon class="cls-1" points="0 0 0 4.53 0 234.21 0 241.74 66.16 241.74 66.16 234.21 66.16 213.85 30.03 214.21 30.15 28.03 66.16 27.9 66.16 4.53 66.16 0 0 0"/>
      <path class="cls-1" d="M251.29,81.74c-1.04-1.13-2.08-2.2-3.21-3.18-10.03-9.3-22.86-14.94-36.58-16.04l-5.29-.4.69-5.2c.29-2.22.43-4.48.43-6.67,0-14.19-5.95-26.99-15.52-36.15-6.88-6.59-15.66-11.3-25.43-13.18-3.15-.61-6.39-.92-9.71-.92h-50.71v241.75h45.65c5.17,0,10.14-.9,14.76-2.57,3.84-1.39,7.48-3.29,10.81-5.66,12.11-8.58,20.05-23.11,20.05-39.53,0-1.73-.09-3.52-.29-5.29l-.61-5.92,5.98.43c1.42.09,2.86.15,4.19.15,14.97,0,28.66-5.35,39.3-14.25,13.29-11.12,21.73-27.74,21.73-46.29,0-15.28-5.75-29.91-16.27-41.09Z"/>
    </g>
  </g>
</svg>