<?xml version="1.0" encoding="UTF-8"?>
<svg id="Capa_2" data-name="Capa 2" xmlns="http://www.w3.org/2000/svg" viewBox="0 0 382.42 95.07">
  <defs>
    <style>
      .cls-1 {
        fill: #34495e;
      }

      .cls-2 {
        fill: #d2691e;
      }
    </style>
  </defs>
  <g id="Capa_1-2" data-name="Capa 1">
    <g>
      <g>
        <polygon class="cls-2" points="0 4.5 0 6.11 0 87.88 0 90.56 23.55 90.56 23.55 87.88 23.55 80.64 10.69 80.76 10.74 14.48 23.55 14.43 23.55 6.11 23.55 4.5 0 4.5"/>
        <path class="cls-2" d="M89.46,33.6c-.37-.4-.74-.78-1.14-1.13-3.57-3.31-8.14-5.32-13.02-5.71l-1.88-.14.25-1.85c.1-.79.15-1.59.15-2.38,0-5.05-2.12-9.61-5.52-12.87-2.45-2.35-5.58-4.02-9.05-4.69-1.12-.22-2.27-.33-3.46-.33h-18.05v86.07h16.25c1.84,0,3.61-.32,5.26-.92,1.37-.49,2.66-1.17,3.85-2.02,4.31-3.06,7.14-8.23,7.14-14.07,0-.62-.03-1.25-.1-1.88l-.22-2.11,2.13.15c.5.03,1.02.05,1.49.05,5.33,0,10.2-1.9,13.99-5.07,4.73-3.96,7.74-9.88,7.74-16.48,0-5.44-2.05-10.65-5.79-14.63Z"/>
      </g>
      <g>
        <path class="cls-1" d="M124.42,39.22V1.61s12.36,0,12.36,0c4.01,0,7.49.81,10.42,2.42,2.94,1.61,5.21,3.83,6.82,6.66,1.61,2.83,2.42,6.07,2.42,9.72s-.81,6.9-2.42,9.72c-1.61,2.83-3.89,5.05-6.82,6.66-2.94,1.61-6.41,2.42-10.42,2.42h-12.36ZM130.82,33.58h6.02c2.54,0,4.81-.53,6.8-1.58,1.99-1.06,3.55-2.58,4.7-4.57,1.15-1.99,1.72-4.32,1.72-7.01,0-2.72-.57-5.07-1.72-7.04-1.15-1.97-2.71-3.48-4.7-4.54-1.99-1.06-4.25-1.58-6.8-1.58h-6.02s0,26.33,0,26.33Z"/>
        <path class="cls-1" d="M178.89,39.22c-3.08,0-5.78-.58-8.09-1.75-2.31-1.16-4.11-2.78-5.4-4.84-1.29-2.06-1.93-4.43-1.93-7.12,0-2.83.57-5.32,1.72-7.47,1.15-2.15,2.72-3.83,4.73-5.05,2.01-1.22,4.32-1.83,6.93-1.83,2.94,0,5.35.63,7.25,1.88,1.9,1.25,3.3,2.94,4.22,5.05.91,2.11,1.37,4.48,1.37,7.09,0,.36-.02.77-.05,1.24-.04.47-.09.82-.16,1.07h-19.45c.21,1.43.73,2.62,1.56,3.57.82.95,1.86,1.67,3.12,2.15,1.25.48,2.65.73,4.19.73h7.36s0,5.27,0,5.27h-7.36ZM169.97,23.32h13.54c-.04-.68-.13-1.36-.3-2.04-.16-.68-.41-1.32-.75-1.93-.34-.61-.77-1.14-1.29-1.58-.52-.45-1.14-.81-1.85-1.07-.72-.27-1.54-.4-2.47-.4-1.07,0-2.02.21-2.85.62-.82.41-1.52.95-2.1,1.61-.57.66-1.01,1.42-1.32,2.26-.3.84-.51,1.69-.62,2.55Z"/>
        <path class="cls-1" d="M210.5,39.86c-1.43,0-2.71-.39-3.84-1.18-1.13-.79-1.94-1.84-2.44-3.17l-8.38-23.69h6.72s7.15,21.28,7.15,21.28c.11.25.23.43.38.54.14.11.3.16.48.16s.35-.05.51-.16.28-.29.35-.54l7.2-21.28h6.61s-8.43,23.69-8.43,23.69c-.47,1.33-1.27,2.38-2.42,3.17-1.15.79-2.44,1.18-3.87,1.18Z"/>
        <path class="cls-1" d="M251.78,39.22c-2.94,0-5.58-.49-7.92-1.48-2.35-.98-4.37-2.34-6.07-4.06-1.7-1.72-3.01-3.72-3.92-5.99-.91-2.27-1.37-4.7-1.37-7.28,0-2.58.46-5,1.37-7.28.91-2.27,2.22-4.27,3.92-5.99,1.7-1.72,3.72-3.07,6.07-4.06,2.35-.98,4.99-1.48,7.92-1.48h5.32s0,5.64,0,5.64h-5.16c-1.9,0-3.64.34-5.21,1.02-1.58.68-2.95,1.61-4.11,2.79-1.16,1.18-2.07,2.57-2.71,4.16-.64,1.59-.97,3.32-.97,5.18s.32,3.6.97,5.21c.64,1.61,1.55,3,2.71,4.16,1.16,1.16,2.53,2.08,4.11,2.74,1.58.66,3.31.99,5.21.99h5.16s0,5.69,0,5.69h-5.32Z"/>
        <path class="cls-1" d="M267.99,39.22V0s6.18,0,6.18,0v39.22s-6.18,0-6.18,0Z"/>
        <path class="cls-1" d="M297.72,39.86c-2.83,0-5.34-.64-7.52-1.91-2.19-1.27-3.91-2.99-5.18-5.16-1.27-2.17-1.91-4.59-1.91-7.28,0-2.69.64-5.11,1.91-7.28,1.27-2.17,3-3.89,5.18-5.16,2.18-1.27,4.69-1.91,7.52-1.91,2.79,0,5.28.64,7.47,1.91,2.18,1.27,3.91,2.98,5.18,5.13,1.27,2.15,1.91,4.59,1.91,7.31,0,2.69-.64,5.11-1.91,7.28-1.27,2.17-3,3.89-5.18,5.16-2.19,1.27-4.67,1.91-7.47,1.91ZM297.72,34.6c1.68,0,3.15-.4,4.41-1.21,1.25-.81,2.22-1.89,2.9-3.25.68-1.36,1.02-2.9,1.02-4.62,0-1.68-.34-3.21-1.02-4.59-.68-1.38-1.65-2.47-2.9-3.28-1.25-.81-2.72-1.21-4.41-1.21s-3.2.4-4.43,1.21c-1.24.81-2.2,1.89-2.9,3.25-.7,1.36-1.05,2.9-1.05,4.62s.35,3.22,1.05,4.59c.7,1.38,1.67,2.47,2.9,3.28,1.24.81,2.71,1.21,4.43,1.21Z"/>
        <path class="cls-1" d="M333.45,39.86c-2.65,0-4.96-.53-6.93-1.58-1.97-1.06-3.49-2.52-4.57-4.38-1.07-1.86-1.61-3.96-1.61-6.29v-15.8s6.18,0,6.18,0v15.74c0,1.4.31,2.62.94,3.68.63,1.06,1.47,1.88,2.53,2.47,1.06.59,2.21.89,3.47.89s2.41-.3,3.47-.89c1.06-.59,1.9-1.41,2.53-2.47.63-1.06.94-2.28.94-3.68v-15.74s6.18,0,6.18,0v15.8c0,2.33-.54,4.42-1.61,6.29-1.07,1.86-2.6,3.32-4.57,4.38-1.97,1.06-4.28,1.58-6.93,1.58Z"/>
        <path class="cls-1" d="M368.18,39.86c-2.19,0-4.16-.35-5.94-1.05-1.77-.7-3.28-1.71-4.51-3.04-1.24-1.32-2.19-2.89-2.85-4.7-.66-1.81-.99-3.81-.99-5.99,0-2.79.56-5.23,1.69-7.31,1.13-2.08,2.69-3.7,4.7-4.86,2.01-1.16,4.3-1.75,6.88-1.75,1.29,0,2.51.2,3.65.59,1.15.39,2.18.95,3.12,1.67.93.72,1.68,1.56,2.26,2.53h.05V0s6.18,0,6.18,0v25.2c0,3.01-.6,5.61-1.8,7.82-1.2,2.2-2.87,3.9-5,5.08-2.13,1.18-4.61,1.77-7.44,1.77ZM368.18,34.6c1.58,0,2.96-.38,4.16-1.16,1.2-.77,2.14-1.84,2.82-3.2.68-1.36,1.02-2.94,1.02-4.73s-.34-3.37-1.02-4.73c-.68-1.36-1.62-2.43-2.82-3.2-1.2-.77-2.61-1.16-4.22-1.16s-2.92.39-4.14,1.18c-1.22.79-2.17,1.86-2.85,3.22-.68,1.36-1.02,2.92-1.02,4.67s.34,3.37,1.02,4.73c.68,1.36,1.64,2.43,2.87,3.2,1.24.77,2.62,1.16,4.16,1.16Z"/>
        <g>
          <path class="cls-1" d="M148.33,55.96c-2.12-1.17-4.47-1.75-7.03-1.75h-16.87v40.17h6.83v-12.4h9.99c2.64,0,5.02-.58,7.14-1.75,2.12-1.17,3.81-2.8,5.05-4.91,1.24-2.1,1.87-4.51,1.87-7.23s-.63-5.17-1.89-7.26c-1.26-2.08-2.96-3.71-5.08-4.88ZM147.35,72.34c-.71,1.19-1.66,2.09-2.87,2.7-1.2.61-2.55.92-4.05.92h-9.18v-15.72h9.24c1.45,0,2.78.32,3.99.95,1.21.63,2.16,1.53,2.87,2.7.71,1.17,1.06,2.59,1.06,4.28s-.35,3-1.06,4.19Z"/>
          <path class="cls-1" d="M185.83,66.46c-2.24-1.36-4.95-2.04-8.12-2.04s-5.98.68-8.29,2.04c-2.32,1.36-4.09,3.19-5.34,5.51-1.24,2.32-1.86,4.93-1.86,7.83s.55,5.35,1.64,7.66c1.09,2.32,2.65,4.16,4.68,5.54,2.03,1.38,4.44,2.07,7.23,2.07,1.8,0,3.37-.29,4.71-.86,1.34-.57,2.47-1.33,3.39-2.27.92-.94,1.66-1.94,2.24-3.01h.11v5.45h6.6v-14.69c0-2.83-.6-5.4-1.81-7.72-1.21-2.31-2.93-4.15-5.17-5.51ZM185.02,84.65c-.71,1.47-1.7,2.64-2.98,3.5-1.28.86-2.78,1.29-4.51,1.29-1.84,0-3.4-.43-4.68-1.29-1.28-.86-2.27-2.03-2.96-3.5-.69-1.47-1.03-3.11-1.03-4.91s.34-3.48,1.03-4.94c.69-1.45,1.68-2.61,2.98-3.47,1.3-.86,2.87-1.29,4.71-1.29s3.27.43,4.53,1.29,2.24,2.01,2.93,3.44,1.03,3.07,1.03,4.91-.35,3.49-1.06,4.96Z"/>
          <path class="cls-1" d="M206.63,67.32c-1.47,1.47-2.21,3.51-2.21,6.11v20.95h6.6v-20.66c0-.92.26-1.64.77-2.18.52-.54,1.23-.8,2.15-.8h5.85v-5.62h-7.06c-2.6,0-4.64.74-6.11,2.21Z"/>
          <path class="cls-1" d="M238.57,57.77h-6.54v7.35h-5.05v5.62h5.05v15.32c0,2.56.74,4.59,2.21,6.08,1.47,1.49,3.51,2.24,6.11,2.24h7.29v-5.62h-6.14c-.88,0-1.59-.28-2.12-.83-.54-.55-.8-1.27-.8-2.15v-15.04h9.12v-5.62h-9.12v-7.35Z"/>
          <path class="cls-1" d="M281.56,66.12c-2.09-1.13-4.54-1.69-7.37-1.69s-5.3.57-7.4,1.69c-2.1,1.13-3.73,2.68-4.88,4.65-1.15,1.97-1.72,4.22-1.72,6.74v16.87h6.6v-16.81c0-1.49.33-2.8,1-3.93.67-1.13,1.57-2.01,2.7-2.64,1.13-.63,2.34-.95,3.64-.95s2.57.32,3.7.95c1.13.63,2.04,1.51,2.73,2.64.69,1.13,1.03,2.44,1.03,3.93v16.81h6.54v-16.87c0-2.52-.57-4.77-1.72-6.74-1.15-1.97-2.76-3.52-4.85-4.65Z"/>
          <path class="cls-1" d="M319.56,66.43c-2.03-1.34-4.61-2.01-7.75-2.01-2.79,0-5.26.65-7.4,1.95-2.14,1.3-3.83,3.1-5.05,5.39-1.22,2.3-1.84,4.95-1.84,7.98s.69,5.4,2.07,7.6c1.38,2.2,3.3,3.92,5.77,5.16,2.47,1.24,5.35,1.86,8.64,1.86h7.86v-5.62h-7.86c-1.65,0-3.14-.26-4.48-.77-1.34-.52-2.45-1.28-3.33-2.3-.88-1.01-1.43-2.29-1.66-3.82h20.77c.08-.27.13-.65.17-1.15.04-.5.06-.94.06-1.32,0-2.79-.49-5.32-1.46-7.58-.98-2.26-2.48-4.05-4.5-5.39ZM304.47,77.4c.11-.92.33-1.83.66-2.73.32-.9.79-1.7,1.41-2.41.61-.71,1.36-1.28,2.24-1.72.88-.44,1.89-.66,3.04-.66.99,0,1.87.14,2.64.43.76.29,1.42.67,1.98,1.15.55.48,1.01,1.04,1.38,1.69.36.65.63,1.34.8,2.07.17.73.28,1.45.32,2.18h-14.46Z"/>
          <path class="cls-1" d="M337.58,67.32c-1.47,1.47-2.21,3.51-2.21,6.11v20.95h6.6v-20.66c0-.92.26-1.64.77-2.18.52-.54,1.23-.8,2.15-.8h5.85v-5.62h-7.06c-2.6,0-4.64.74-6.11,2.21Z"/>
          <path class="cls-1" d="M381.24,80.38c-.78-1.3-1.92-2.28-3.41-2.93-1.49-.65-3.29-.98-5.39-.98h-5.57c-.96,0-1.72-.29-2.3-.86s-.86-1.24-.86-2.01.29-1.48.86-2.04c.57-.55,1.3-.83,2.18-.83h12.97v-5.62h-13.6c-1.68,0-3.19.4-4.53,1.21-1.34.8-2.4,1.86-3.18,3.16-.78,1.3-1.18,2.74-1.18,4.3,0,1.95.42,3.57,1.26,4.85.84,1.28,1.99,2.23,3.44,2.84,1.45.61,3.12.92,4.99.92h5.74c.65,0,1.22.14,1.72.43.5.29.88.66,1.15,1.12.27.46.4,1,.4,1.61,0,.54-.14,1.05-.43,1.55-.29.5-.69.9-1.21,1.2-.52.31-1.12.46-1.81.46h-14.12v5.62h14.81c1.76,0,3.34-.41,4.73-1.23,1.4-.82,2.5-1.93,3.3-3.33.8-1.4,1.21-2.9,1.21-4.5,0-1.99-.39-3.63-1.18-4.94Z"/>
        </g>
      </g>
    </g>
  </g>
</svg>